<svg xmlns="http://www.w3.org/2000/svg" width="396" height="205" xmlns:v="https://vecta.io/nano"><path fill="#fff" d="M400.004 208.202l-130.113-30.766c.017-.174.052-.341.052-.519 0-2.688-2.029-4.88-4.636-5.187l-3.746-159.245c.045.001.087.014.132.014a5.25 5.25 0 0 0 5.249-5.249 5.25 5.25 0 0 0-5.249-5.249c-2.736 0-4.958 2.103-5.201 4.774L38.326 40.626c-.687-2.098-2.639-3.624-4.966-3.624-2.084 0-3.869 1.225-4.716 2.985L-8.276 29.05l-.564 1.902 36.986 10.957c-.007.115-.034.225-.034.342 0 2.235 1.404 4.133 3.374 4.889L-1.235 214.9l1.955.342 32.719-167.75c1.486-.022 2.813-.665 3.756-1.678l222.461 129.711c-.124.446-.211.907-.211 1.393 0 1.061.32 2.044.861 2.87l-36.553 35.334 1.379 1.426 36.555-35.337c.853.599 1.887.956 3.007.956 2.02 0 3.752-1.153 4.63-2.825l130.224 30.792.456-1.932zM38.248 44.131c.185-.481.291-.997.326-1.534L256.688 8.755c.442 1.469 1.491 2.67 2.876 3.286l3.761 159.831a5.23 5.23 0 0 0-2.786 1.871L38.248 44.131z"/></svg>