<?xml version="1.0" encoding="utf-8"?>
<!-- Generator: Adobe Illustrator 16.0.0, SVG Export Plug-In . SVG Version: 6.00 Build 0)  -->
<!DOCTYPE svg PUBLIC "-//W3C//DTD SVG 1.1//EN" "http://www.w3.org/Graphics/SVG/1.1/DTD/svg11.dtd">
<svg version="1.1" xmlns="http://www.w3.org/2000/svg" xmlns:xlink="http://www.w3.org/1999/xlink" x="0px" y="0px" width="233px"
	 height="306px" viewBox="0 0 233 306" enable-background="new 0 0 233 306" xml:space="preserve">
<g id="Layer_3" display="none">
</g>
<g id="Layer_2">
	<g>
		<g>
			<path fill="#FFFFFF" d="M100.77,26.873L119.1,8.546c-0.244-0.466-0.391-0.982-0.407-1.539c-18.3,0.88-34.79,8.752-46.869,20.993
				c0.38,0.356,0.701,0.769,0.898,1.263L100.77,26.873z"/>
			<polygon fill="#FFFFFF" points="70.649,40.949 70.984,56.663 73.491,54.152 			"/>
			<path fill="#FFFFFF" d="M78.02,75.173l-4.025-18.699l-2.952,2.953l0.378,17.657l4.936,0.106
				C76.631,76.32,77.229,75.605,78.02,75.173z"/>
			<path fill="#FFFFFF" d="M103.45,121.654l15.304-1.981c-8.282-1.035-19.54-6.591-25.641-11.702L103.45,121.654z"/>
			<path fill="#FFFFFF" d="M118.964,121.482l-14.153,1.996l16.124,21.652c0.092-0.035,0.184-0.059,0.278-0.087l-0.062-21.587
				C120.167,123.141,119.364,122.426,118.964,121.482z"/>
			<path fill="#FFFFFF" d="M125.046,122.17c-0.464,0.624-1.13,1.082-1.898,1.292l0.061,21.536c0.024,0.008,0.048,0.016,0.074,0.024
				l13.661-19.421L125.046,122.17z"/>
			<path fill="#FFFFFF" d="M101.2,121.975l-9.638-12.94c-0.332,0.105-0.679,0.178-1.047,0.178c-0.537,0-1.039-0.128-1.496-0.344
				l-14.544,16.435c0.082,0.132,0.156,0.268,0.22,0.41L101.2,121.975z"/>
			<path fill="#FFFFFF" d="M74.97,127.689c-0.104,0.707-0.427,1.338-0.877,1.843c11.84,10.979,27.424,17.969,44.606,18.799
				c0.017-0.738,0.255-1.419,0.659-1.976l-16.8-22.56L74.97,127.689z"/>
			<path fill="#FFFFFF" d="M77.816,95.548l10.364,7.489v-0.001c-4.38-5.854-7.378-13.66-8.257-21.288L77.816,95.548z"/>
			<path fill="#FFFFFF" d="M53.561,80.476c-0.573,0.443-1.285,0.712-2.061,0.733c0.813,16.574,7.37,31.655,17.707,43.32
				c0.355-0.303,0.749-0.562,1.204-0.707L69.739,92.17L53.561,80.476z"/>
			<path fill="#FFFFFF" d="M78.163,81.468c-0.906-0.442-1.588-1.253-1.856-2.241l-4.848-0.105l0.255,12.012l4.295,3.107
				L78.163,81.468z"/>
			<polygon fill="#FFFFFF" points="71.769,93.637 72.257,116.567 75.642,96.438 			"/>
			<path fill="#FFFFFF" d="M86.977,105.677c0-0.33,0.062-0.64,0.146-0.942l-9.673-6.992l-4.403,26.16l14.476-16.356
				C87.184,107.003,86.977,106.366,86.977,105.677z"/>
			<path fill="#FFFFFF" d="M54.731,78.855l14.954,10.813l-0.224-10.591l-14.699-0.319C54.752,78.792,54.742,78.826,54.731,78.855z"
				/>
			<path fill="#FFFFFF" d="M53.09,74.596l15.938-15.939L68.504,33.98c-0.505-0.138-0.943-0.414-1.333-0.742
				C58.019,44.542,52.258,58.703,51.5,74.162C52.075,74.179,52.615,74.334,53.09,74.596z"/>
			<path fill="#FFFFFF" d="M87.574,48.641c0-0.499,0.108-0.973,0.291-1.403l-2.507-2.09l-9.682,9.686l4.219,19.934
				c0.683-8.639,3.926-16.991,9.019-23.408C88.112,50.715,87.574,49.752,87.574,48.641z"/>
			<path fill="#FFFFFF" d="M83.821,43.864L71.399,33.52c-0.093,0.062-0.188,0.104-0.282,0.153l4.054,18.837L83.821,43.864z"/>
			<path fill="#FFFFFF" d="M85.236,42.449l13.349-13.348l-25.689,2.188c-0.048,0.245-0.124,0.476-0.222,0.697L85.236,42.449z"/>
			<path fill="#FFFFFF" d="M123.282,10.313c-0.05,0.017-0.099,0.034-0.143,0.047v14.648l9.886-0.843L123.282,10.313z"/>
			<path fill="#FFFFFF" d="M121.142,25.178V10.31c-0.23-0.075-0.447-0.17-0.655-0.286l-16.63,16.627L121.142,25.178z"/>
			<path fill="#FFFFFF" d="M54.81,76.762l14.606,0.318l-0.328-15.661L54.501,76.007C54.633,76.242,54.735,76.495,54.81,76.762z"/>
			<path fill="#FFFFFF" d="M177.964,73.06c-0.556,0-1.078,0.141-1.546,0.37l-18.75-20.492l8.413-27.017
				c0.038,0.002,0.071,0.007,0.108,0.007c1.975,0,3.582-1.609,3.582-3.584c0-1.977-1.607-3.581-3.582-3.581
				c-1.174,0-2.215,0.569-2.87,1.444c-10.974-7.863-24.085-12.449-37.571-13.146c-0.023,0.814-0.329,1.553-0.811,2.136
				l10.392,14.772l27.347-2.329c-0.044,0.228-0.072,0.463-0.072,0.704c0,0.452,0.089,0.885,0.245,1.284l-26.189,2.231l10.72,15.232
				c-0.647,0.225-1.211,0.624-1.636,1.147l-11.389-16.185l-11.215,0.953v4.815c1.503,0.404,2.619,1.766,2.619,3.401
				c0,0.058-0.016,0.113-0.021,0.171c7.169,0.595,13.366,4.145,19.34,8.156c-0.081,0.298-0.125,0.606-0.125,0.93
				c0,0.196,0.021,0.392,0.051,0.58l-11.94,5.87l-8.268-13.335c0.552-0.592,0.901-1.373,0.942-2.238
				c-1.188-0.099-2.389-0.149-3.6-0.149c-1.159,0-2.299,0.081-3.433,0.175c0.055,0.969,0.492,1.826,1.174,2.435l-11.232,25.107
				l-8.431,4.145L93.371,51.3c0.777-0.648,1.278-1.607,1.278-2.699c0-0.907-0.353-1.726-0.918-2.353
				c6.735-6.09,15.397-10.055,24.975-10.827c-0.004-0.066-0.024-0.129-0.024-0.196c0-1.574,1.039-2.893,2.46-3.351v-4.695
				l-19.473,1.66L86.776,43.731l2.368,1.972c0.563-0.377,1.242-0.6,1.972-0.6c1.021,0,1.934,0.443,2.577,1.142
				c-1.723,1.563-3.327,3.25-4.779,5.074c0.349,0.279,0.729,0.512,1.166,0.646l-0.214,20.19l-7.567,3.718
				c-0.587-0.637-1.409-1.053-2.327-1.123l-0.076,0.016c-0.084,1.111-0.196,1.746-0.196,2.882c0,1.648,0.044,2.498,0.225,4.1
				l0.38-0.019c1.799-0.163,2.941-1.658,2.941-3.466c0-0.207-0.031-0.401-0.062-0.599l6.659-3.272l-0.292,27.857
				c-0.516,0.146-0.98,0.44-1.37,0.786c1.394,2.321,2.562,3.509,4.933,4.935l0.108-0.085c0.513-0.615,0.829-1.39,0.829-2.25
				c0-0.645-0.184-1.241-0.485-1.763l14.024-14.799l12.307,28.345c-0.593,0.521-1.011,1.228-1.152,2.037l0.01,0.217
				c0,0,1.55,0.467,3.422,0.592c1.867,0.128,3.682,0.06,3.682,0.06s-0.482-2.02-1.015-2.618l23.015-36.062
				c0.312,0.092,0.631,0.154,0.974,0.154c0.024,0,0.047-0.007,0.071-0.007l6.271,19.808l-5.118,5.96
				c-0.447-0.203-0.947-0.319-1.473-0.319c-1.976,0-3.582,1.606-3.582,3.584c0,0.198,0.021,0.393,0.051,0.586
				c0,0.01,0.003,0.021,0.003,0.031c0.014,0.071,0.026,0.142,0.045,0.209c-4.995,3.949-12.098,8.081-19.242,8.674l12.305,3.55
				l7.615-10.827c0.421,0.526,0.984,0.93,1.628,1.155l-7.218,10.256l22.949,6.622c-0.353,0.553-0.557,1.205-0.557,1.911v0.003
				l-23.604-6.808l-14.038,19.952c0.481,0.584,0.787,1.323,0.811,2.136c13.476-0.697,26.576-5.281,37.555-13.135
				c0.625,0.829,1.602,1.377,2.704,1.426c0.074,0.005,0.149,0.013,0.224,0.013c1.953,0,3.539-1.582,3.539-3.535
				c0-0.498-0.105-0.973-0.292-1.404c-0.536-1.305-1.819-2.229-3.315-2.229c-0.03,0-0.057,0.005-0.084,0.005l-8.664-27.357
				l19.099-22.239c0.445,0.198,0.933,0.317,1.451,0.317c1.951,0,3.536-1.584,3.536-3.538C181.5,74.644,179.915,73.06,177.964,73.06z
				 M107.371,65.779l-3.913,8.755l-2.443-5.632L107.371,65.779z M92.062,53.298l6.363,14.654l-6.55,3.219L92.062,53.298z
				 M91.561,101.135l0.291-27.729l7.368-3.621l3.132,7.219L91.561,101.135z M94.051,100.455l9.379-20.97l3.302,7.6L94.051,100.455z
				 M121.142,115.281l-12.056-27.78l12.056-12.716V115.281z M121.142,71.883L108.224,85.51l-3.691-8.491l5.642-12.618l10.968-5.388
				V71.883z M121.142,56.789l-9.691,4.76l9.691-21.663V56.789z M156.106,51.231l-4.497-4.918c0.319-0.537,0.51-1.163,0.51-1.832
				c0-1.134-0.531-2.143-1.355-2.8l13.18-16.55c0.079,0.063,0.156,0.12,0.239,0.177L156.106,51.231z M146.063,48.497l-5.225,14.979
				l-3.552-5.725L146.063,48.497z M143.99,47.785l-7.79,8.213l-2.083-3.361L143.99,47.785z M123.14,38.714l8.122,13.101
				l-8.122,3.993V38.714z M123.14,58.03l9.176-4.51l2.464,3.975l-11.64,12.283V58.03z M123.14,114.198v-41.52l12.729-13.428
				l4.125,6.648L123.14,114.198z M146.17,80.571l-20.271,31.767l15.445-44.256l4.854,7.837c-0.556,0.623-0.902,1.439-0.902,2.345
				C145.296,79.15,145.632,79.952,146.17,80.571z M148.791,74.731c-0.31,0.004-0.608,0.056-0.89,0.136l-5.71-9.209l6.145-17.606
				c0.063,0.005,0.132,0.01,0.199,0.01c0.58,0,1.126-0.14,1.616-0.39l5.271,5.764L148.791,74.731z M156.979,55.141l17.967,19.635
				c-0.187,0.312-0.332,0.654-0.416,1.018l-22.382,1.281c-0.269-0.748-0.773-1.38-1.439-1.796L156.979,55.141z M164.174,130.013
				c-0.084,0.056-0.162,0.115-0.241,0.178l-13.169-16.535c0.852-0.655,1.402-1.679,1.402-2.831c0-0.728-0.222-1.402-0.594-1.968
				l4.311-5.019L164.174,130.013z M156.704,99.819l-5.898-18.625c0.729-0.488,1.258-1.246,1.461-2.128l22.38-1.28
				c0.093,0.258,0.204,0.504,0.354,0.73L156.704,99.819z"/>
		</g>
		<g>
			<path fill="#FFFFFF" d="M64.819,190.728c-2.384,0-4.249-2.008-4.249-4.572v-0.037c0-2.589,1.825-4.537,4.249-4.537
				c1.271,0,2.359,0.468,3.513,1.518l1.289-1.483c-0.994-0.935-2.344-1.868-4.786-1.868c-3.642,0-6.385,2.756-6.385,6.408v0.035
				c0,3.631,2.703,6.37,6.296,6.37c2.046,0,3.491-0.619,4.962-2.127l-1.281-1.302C67.354,190.121,66.367,190.728,64.819,190.728z"/>
			<path fill="#FFFFFF" d="M84.965,186.162c0-3.632-2.778-6.371-6.462-6.371c-3.701,0-6.493,2.755-6.493,6.408v0.036
				c0,3.63,2.773,6.369,6.455,6.369c3.647,0,6.5-2.814,6.5-6.405V186.162z M82.844,186.235c0,2.588-1.868,4.538-4.341,4.538
				c-2.456,0-4.377-2.01-4.377-4.574v-0.037c0-2.588,1.861-4.537,4.339-4.537c2.456,0,4.379,2.009,4.379,4.574V186.235z"/>
			<path fill="#FFFFFF" d="M93.093,188.045l3.063,4.345h2.362l-3.368-4.722l0.135-0.036c1.894-0.542,2.931-1.86,2.931-3.715v-0.037
				c0-1.047-0.35-1.961-1.018-2.644c-0.817-0.802-2.048-1.228-3.555-1.228h-5.511v12.381h2.012v-4.384h2.922L93.093,188.045z
				 M90.145,181.824h3.318c1.72,0,2.704,0.795,2.704,2.184v0.034c0,1.339-1.056,2.203-2.688,2.203h-3.334V181.824z"/>
			<path fill="#FFFFFF" d="M111.696,189.002c0-1.475-0.746-2.386-2.429-2.96l-0.22-0.075l0.207-0.107
				c1.173-0.609,1.746-1.499,1.746-2.717v-0.033c0-0.809-0.271-1.467-0.821-2.016c-0.705-0.709-1.817-1.085-3.216-1.085h-5.543
				v12.381h5.725c2.852,0,4.551-1.252,4.551-3.351V189.002z M103.399,181.768h3.277c1.448,0,2.313,0.635,2.313,1.699v0.037
				c0,1.147-0.902,1.807-2.473,1.807h-3.118V181.768z M109.685,188.805c0,1.16-0.918,1.825-2.52,1.825h-3.766v-3.649h3.6
				c1.737,0,2.686,0.633,2.686,1.788V188.805z"/>
			<path fill="#FFFFFF" d="M123.086,189.353l1.277,3.037h2.119l-5.449-12.47h-1.918l-5.446,12.47h2.045l1.293-3.037H123.086z
				 M117.793,187.452l2.246-5.241l2.327,5.381h-4.638L117.793,187.452z"/>
			<polygon fill="#FFFFFF" points="129.186,180.009 129.186,192.39 137.81,192.39 137.81,190.576 131.197,190.576 131.197,180.009 
							"/>
			<path fill="#FFFFFF" d="M148.997,189.353l1.279,3.037h2.116l-5.447-12.47h-1.918l-5.448,12.47h2.046l1.296-3.037H148.997z
				 M143.701,187.452l2.249-5.241l2.328,5.381h-4.638L143.701,187.452z"/>
			<polygon fill="#FFFFFF" points="164.157,192.39 165.861,192.39 165.861,180.009 163.882,180.009 163.882,188.899 
				163.707,188.669 157,180.009 155.097,180.009 155.097,192.39 157.071,192.39 157.071,183.248 157.247,183.478 			"/>
		</g>
		<g>
			<polygon fill="#FFFFFF" points="80.211,164.481 83.316,164.481 83.316,172.674 85.351,172.674 85.351,164.481 88.455,164.481 
				88.455,162.589 80.211,162.589 			"/>
			<polygon fill="#FFFFFF" points="97.756,166.655 93.381,166.655 93.381,162.589 91.362,162.589 91.362,172.674 93.381,172.674 
				93.381,168.551 97.756,168.551 97.756,172.674 99.773,172.674 99.773,162.589 97.756,162.589 			"/>
			<rect x="103.481" y="162.589" fill="#FFFFFF" width="2.018" height="10.085"/>
			<path fill="#FFFFFF" d="M114.516,162.521h-1.788l-4.437,10.153h2.091l1.004-2.363h4.43l0.994,2.363h2.145l-4.397-10.065
				L114.516,162.521z M115.06,168.488h-2.918l1.455-3.387L115.06,168.488z"/>
			<path fill="#FFFFFF" d="M126.203,168.703h2.5v1.606c-0.601,0.424-1.4,0.665-2.211,0.665c-1.874,0-3.179-1.372-3.179-3.372
				c0-1.822,1.355-3.304,3.025-3.304c1.212,0,1.91,0.388,2.643,1.014l0.112,0.099l1.282-1.53l-0.112-0.097
				c-1.144-0.968-2.262-1.366-3.854-1.366c-2.917,0-5.2,2.291-5.2,5.24c0,3.052,2.15,5.184,5.224,5.184
				c1.947,0,3.352-0.847,4.183-1.56l0.056-0.046v-4.33h-4.469V168.703z"/>
			<path fill="#FFFFFF" d="M138.84,162.418c-2.958,0-5.275,2.291-5.275,5.24c0,2.957,2.256,5.184,5.248,5.184
				c2.965,0,5.286-2.288,5.286-5.239C144.099,164.647,141.835,162.418,138.84,162.418z M138.813,164.299
				c1.816,0,3.18,1.434,3.18,3.359c0,1.883-1.354,3.305-3.152,3.305c-1.809,0-3.176-1.433-3.176-3.36
				C135.664,165.721,137.022,164.299,138.813,164.299z"/>
		</g>
		<g>
			<path fill="#FFFFFF" d="M77.855,203.374h2.668c2.152,0,3.638,1.476,3.638,3.402v0.02c0,1.926-1.485,3.422-3.638,3.422h-2.668
				V203.374z M80.523,208.859c1.232,0,2.063-0.833,2.063-2.043v-0.021c0-1.212-0.831-2.063-2.063-2.063h-1.162v4.127H80.523z"/>
			<path fill="#FFFFFF" d="M85.992,203.374h5.164v1.338H87.49v1.391h3.225v1.336H87.49v1.439h3.713v1.34h-5.211V203.374z"/>
			<path fill="#FFFFFF" d="M92.566,209.22l0.89-1.063c0.617,0.506,1.262,0.83,2.043,0.83c0.616,0,0.986-0.245,0.986-0.646v-0.019
				c0-0.383-0.234-0.576-1.377-0.872c-1.377-0.351-2.271-0.733-2.271-2.091v-0.019c0-1.241,0.999-2.064,2.399-2.064
				c0.998,0,1.846,0.313,2.54,0.869l-0.783,1.137c-0.604-0.422-1.201-0.677-1.777-0.677c-0.577,0-0.883,0.266-0.883,0.598v0.019
				c0,0.451,0.296,0.598,1.479,0.898c1.389,0.365,2.167,0.863,2.167,2.055v0.02c0,1.359-1.033,2.121-2.51,2.121
				C94.433,210.314,93.389,209.953,92.566,209.22z"/>
			<path fill="#FFFFFF" d="M99.854,203.374h1.507v6.844h-1.507V203.374z"/>
			<path fill="#FFFFFF" d="M103.258,206.816v-0.021c0-1.946,1.516-3.54,3.588-3.54c1.231,0,1.975,0.333,2.688,0.939l-0.948,1.145
				c-0.527-0.441-0.995-0.695-1.786-0.695c-1.097,0-1.967,0.969-1.967,2.132v0.02c0,1.251,0.86,2.169,2.072,2.169
				c0.55,0,1.038-0.136,1.419-0.408v-0.979h-1.518v-1.302h2.976v2.975c-0.706,0.595-1.673,1.085-2.925,1.085
				C104.727,210.335,103.258,208.839,103.258,206.816z"/>
			<path fill="#FFFFFF" d="M111.718,203.374h1.388l3.21,4.213v-4.213h1.485v6.844h-1.283l-3.314-4.353v4.353h-1.485V203.374z"/>
			<path fill="#FFFFFF" d="M124.826,203.374h5.21v1.369h-3.708v1.456h3.267v1.369h-3.267v2.649h-1.502V203.374z"/>
			<path fill="#FFFFFF" d="M131.428,206.816v-0.021c0-1.946,1.533-3.54,3.647-3.54c2.109,0,3.626,1.574,3.626,3.521v0.02
				c0,1.945-1.536,3.539-3.647,3.539C132.94,210.335,131.428,208.762,131.428,206.816z M137.127,206.816v-0.021
				c0-1.175-0.862-2.151-2.073-2.151c-1.21,0-2.052,0.958-2.052,2.132v0.02c0,1.174,0.858,2.149,2.073,2.149
				C136.286,208.945,137.127,207.989,137.127,206.816z"/>
			<path fill="#FFFFFF" d="M140.532,203.374h3.129c0.872,0,1.546,0.244,1.993,0.694c0.385,0.381,0.588,0.918,0.588,1.563v0.021
				c0,1.105-0.598,1.798-1.466,2.12l1.673,2.446h-1.76l-1.466-2.191h-1.186v2.191h-1.506V203.374z M143.562,206.697
				c0.737,0,1.154-0.391,1.154-0.968v-0.021c0-0.644-0.448-0.977-1.18-0.977h-1.498v1.965H143.562z"/>
		</g>
		<g>
			<path fill="#FFFFFF" d="M64.787,217.254h1.621l1.802,2.894l1.798-2.894h1.622v6.845h-1.496v-4.469l-1.924,2.924h-0.041
				l-1.906-2.895v4.439h-1.476V217.254z"/>
			<path fill="#FFFFFF" d="M73.658,221.166v-3.912h1.506v3.872c0,1.115,0.557,1.691,1.477,1.691c0.919,0,1.476-0.559,1.476-1.643
				v-3.921h1.507v3.862c0,2.073-1.165,3.089-3.002,3.089C74.783,224.205,73.658,223.18,73.658,221.166z"/>
			<path fill="#FFFFFF" d="M81.65,217.254h1.507v5.477h3.408v1.368H81.65V217.254z"/>
			<path fill="#FFFFFF" d="M89.785,218.642h-2.08v-1.388h5.67v1.388h-2.084v5.457h-1.506V218.642z"/>
			<path fill="#FFFFFF" d="M95.088,217.254h1.506v6.845h-1.506V217.254z"/>
			<path fill="#FFFFFF" d="M98.675,218.746h4.302v2.041h-4.302V218.746z"/>
			<path fill="#FFFFFF" d="M105.193,217.254h2.799c1.633,0,2.62,0.97,2.62,2.367v0.017c0,1.585-1.232,2.405-2.769,2.405H106.7v2.056
				h-1.507V217.254z M107.895,220.704c0.753,0,1.191-0.447,1.191-1.035v-0.021c0-0.673-0.47-1.034-1.223-1.034H106.7v2.09H107.895z"
				/>
			<path fill="#FFFFFF" d="M112.22,217.254h1.502v5.477h3.413v1.368h-4.915V217.254z"/>
			<path fill="#FFFFFF" d="M121.107,217.207h1.389l2.934,6.892h-1.574l-0.623-1.535h-2.898l-0.624,1.535h-1.533L121.107,217.207z
				 M122.693,221.233l-0.911-2.218l-0.909,2.218H122.693z"/>
			<path fill="#FFFFFF" d="M128.571,218.642h-2.084v-1.388h5.674v1.388h-2.084v5.457h-1.506V218.642z"/>
			<path fill="#FFFFFF" d="M133.806,217.254h5.21v1.367h-3.704v1.458h3.264v1.369h-3.264v2.65h-1.506V217.254z"/>
			<path fill="#FFFFFF" d="M140.407,220.695v-0.019c0-1.947,1.536-3.541,3.646-3.541c2.114,0,3.628,1.576,3.628,3.521v0.021
				c0,1.944-1.534,3.539-3.648,3.539C141.924,224.216,140.407,222.641,140.407,220.695z M146.106,220.695v-0.019
				c0-1.175-0.859-2.15-2.073-2.15c-1.21,0-2.052,0.955-2.052,2.13v0.021c0,1.173,0.862,2.151,2.072,2.151
				C145.267,222.828,146.106,221.87,146.106,220.695z"/>
			<path fill="#FFFFFF" d="M149.514,217.254h3.13c0.868,0,1.544,0.244,1.991,0.695c0.383,0.379,0.587,0.917,0.587,1.563v0.02
				c0,1.104-0.593,1.8-1.466,2.122l1.673,2.444h-1.761l-1.465-2.19h-1.184v2.19h-1.506V217.254z M152.546,220.579
				c0.732,0,1.153-0.394,1.153-0.969v-0.019c0-0.646-0.452-0.978-1.184-0.978h-1.496v1.965H152.546z"/>
			<path fill="#FFFFFF" d="M157.074,217.254h1.622l1.802,2.894l1.798-2.894h1.621v6.845h-1.496v-4.469l-1.923,2.924h-0.041
				l-1.907-2.895v4.439h-1.476V217.254z"/>
		</g>
	</g>
	<text transform="matrix(1 0 0 1 4.0254 301.6328)" fill="#FFFFFF" font-family="'GothamBook'" font-size="14">contato@thiagocorbalan.com.br</text>
</g>
<g id="Layer_1">
</g>
</svg>
