<svg xmlns="http://www.w3.org/2000/svg" width="352" height="246" xmlns:v="https://vecta.io/nano"><path fill="#fff" d="M361.224 255.638l-59.329-65.707c1.076-.918 1.772-2.266 1.772-3.79 0-1.406-.585-2.672-1.519-3.58l46.085-34.497c.917 1.06 2.255 1.744 3.767 1.744a5 5 0 1 0 0-10c-1.666 0-3.131.822-4.039 2.074L10.934 43.83a4.93 4.93 0 0 0-.588-1.769L72.774-3.253l-.881-1.213L9.434 40.872c-.896-.851-2.1-1.38-3.433-1.38a5 5 0 1 0 0 10c1.651 0 3.104-.811 4.015-2.046l117.823 85.087a4.95 4.95 0 0 0-.671 2.459 5 5 0 0 0 5 5c2.199 0 4.047-1.43 4.716-3.404l156.825 49.139c-.012.139-.042.272-.042.414a5 5 0 0 0 5 5c.689 0 1.347-.14 1.944-.393l59.499 65.896 1.114-1.006zM137.157 135.101c.001-.037.011-.071.011-.108a5 5 0 0 0-5-5c-1.321 0-2.514.522-3.408 1.358L10.713 46.102c.08-.233.153-.47.198-.718l336.363 97.859a4.95 4.95 0 0 0-.274 1.564c0 .709.152 1.381.418 1.992l-46.571 34.86c-.661-.322-1.395-.52-2.18-.52-2.095 0-3.883 1.29-4.627 3.118l-156.883-49.156z"/></svg>