<svg xmlns="http://www.w3.org/2000/svg" width="233" height="306" fill="#fff" xmlns:v="https://vecta.io/nano"><path d="M100.77 26.873L119.1 8.546a3.51 3.51 0 0 1-.407-1.539c-18.3.88-34.79 8.752-46.869 20.993.38.356.701.769.898 1.263l28.048-2.39zM70.649 40.949l.335 15.714 2.507-2.511zm7.371 34.224l-4.025-18.699-2.952 2.953.378 17.657 4.936.106a3.49 3.49 0 0 1 1.663-2.017zm25.43 46.481l15.304-1.981c-8.282-1.035-19.54-6.591-25.641-11.702l10.337 13.683zm15.514-.172l-14.153 1.996 16.124 21.652c.092-.035.184-.059.278-.087l-.062-21.587c-.984-.315-1.787-1.03-2.187-1.974zm6.082.688a3.52 3.52 0 0 1-1.898 1.292l.061 21.536.074.024 13.661-19.421-11.898-3.431zm-23.846-.195l-9.638-12.94c-.332.105-.679.178-1.047.178a3.48 3.48 0 0 1-1.496-.344l-14.544 16.435a3.51 3.51 0 0 1 .22.41l26.505-3.739zm-26.23 5.714c-.104.707-.427 1.338-.877 1.843 11.84 10.979 27.424 17.969 44.606 18.799.017-.738.255-1.419.659-1.976l-16.8-22.56-27.588 3.894zm2.846-32.141l10.364 7.489v-.001c-4.38-5.854-7.378-13.66-8.257-21.288l-2.107 13.8zM53.561 80.476a3.51 3.51 0 0 1-2.061.733c.813 16.574 7.37 31.655 17.707 43.32.355-.303.749-.562 1.204-.707l-.672-31.652-16.178-11.694zm24.602.992a3.52 3.52 0 0 1-1.856-2.241l-4.848-.105.255 12.012 4.295 3.107 2.154-12.773zm-6.394 12.169l.488 22.93 3.385-20.129zm15.208 12.04c0-.33.062-.64.146-.942l-9.673-6.992-4.403 26.16 14.476-16.356c-.339-.544-.546-1.181-.546-1.87zM54.731 78.855l14.954 10.813-.224-10.591-14.699-.319-.031.097zm-1.641-4.259l15.938-15.939-.524-24.677c-.505-.138-.943-.414-1.333-.742C58.019 44.542 52.258 58.703 51.5 74.162c.575.017 1.115.172 1.59.434zm34.484-25.955c0-.499.108-.973.291-1.403l-2.507-2.09-9.682 9.686 4.219 19.934c.683-8.639 3.926-16.991 9.019-23.408-.802-.645-1.34-1.608-1.34-2.719zm-3.753-4.777L71.399 33.52c-.093.062-.188.104-.282.153l4.054 18.837 8.65-8.646zm1.415-1.415l13.349-13.348-25.689 2.188c-.048.245-.124.476-.222.697l12.562 10.463zm38.046-32.136l-.143.047v14.648l9.886-.843-9.743-13.852zm-2.14 14.865V10.31a3.68 3.68 0 0 1-.655-.286l-16.63 16.627 17.285-1.473zM54.81 76.762l14.606.318-.328-15.661-14.587 14.588a3.43 3.43 0 0 1 .309.755z"/><path d="M177.964 73.06c-.556 0-1.078.141-1.546.37l-18.75-20.492 8.413-27.017.108.007a3.59 3.59 0 0 0 3.582-3.584c0-1.977-1.607-3.581-3.582-3.581a3.58 3.58 0 0 0-2.87 1.444c-10.974-7.863-24.085-12.449-37.571-13.146a3.5 3.5 0 0 1-.811 2.136l10.392 14.772 27.347-2.329a3.71 3.71 0 0 0-.072.704 3.52 3.52 0 0 0 .245 1.284l-26.189 2.231 10.72 15.232a3.65 3.65 0 0 0-1.636 1.147l-11.389-16.185-11.215.953v4.815c1.503.404 2.619 1.766 2.619 3.401 0 .058-.016.113-.021.171 7.169.595 13.366 4.145 19.34 8.156a3.52 3.52 0 0 0-.125.93 3.7 3.7 0 0 0 .051.58l-11.94 5.87-8.268-13.335c.552-.592.901-1.373.942-2.238a43.35 43.35 0 0 0-3.6-.149c-1.159 0-2.299.081-3.433.175a3.51 3.51 0 0 0 1.174 2.435l-11.232 25.107-8.431 4.145L93.371 51.3c.777-.648 1.278-1.607 1.278-2.699 0-.907-.353-1.726-.918-2.353 6.735-6.09 15.397-10.055 24.975-10.827-.004-.066-.024-.129-.024-.196 0-1.574 1.039-2.893 2.46-3.351v-4.695l-19.473 1.66-14.893 14.892 2.368 1.972c.563-.377 1.242-.6 1.972-.6a3.49 3.49 0 0 1 2.577 1.142c-1.723 1.563-3.327 3.25-4.779 5.074.349.279.729.512 1.166.646l-.214 20.19-7.567 3.718a3.52 3.52 0 0 0-2.327-1.123l-.076.016c-.084 1.111-.196 1.746-.196 2.882a30.7 30.7 0 0 0 .225 4.1l.38-.019c1.799-.163 2.941-1.658 2.941-3.466 0-.207-.031-.401-.062-.599l6.659-3.272-.292 27.857c-.516.146-.98.44-1.37.786 1.394 2.321 2.562 3.509 4.933 4.935l.108-.085a3.49 3.49 0 0 0 .829-2.25c0-.645-.184-1.241-.485-1.763l14.024-14.799 12.307 28.345a3.51 3.51 0 0 0-1.152 2.037l.01.217s1.55.467 3.422.592 3.682.06 3.682.06-.482-2.02-1.015-2.618l23.015-36.062c.312.092.631.154.974.154.024 0 .047-.007.071-.007l6.271 19.808-5.118 5.96a3.56 3.56 0 0 0-1.473-.319c-1.976 0-3.582 1.606-3.582 3.584a3.81 3.81 0 0 0 .051.586c0 .01.003.021.003.031.014.071.026.142.045.209-4.995 3.949-12.098 8.081-19.242 8.674l12.305 3.55 7.615-10.827c.421.526.984.93 1.628 1.155l-7.218 10.256 22.949 6.622a3.53 3.53 0 0 0-.557 1.911v.003l-23.604-6.808-14.038 19.952c.481.584.787 1.323.811 2.136a71.03 71.03 0 0 0 37.555-13.135c.625.829 1.602 1.377 2.704 1.426.074.005.149.013.224.013a3.54 3.54 0 0 0 3.539-3.535 3.52 3.52 0 0 0-.292-1.404 3.59 3.59 0 0 0-3.315-2.229c-.03 0-.057.005-.084.005l-8.664-27.357 19.099-22.239c.445.198.933.317 1.451.317a3.54 3.54 0 0 0 3.536-3.538c-.003-1.954-1.588-3.538-3.539-3.538zm-70.593-7.281l-3.913 8.755-2.443-5.632 6.356-3.123zM92.062 53.298l6.363 14.654-6.55 3.219.187-17.873zm-.501 47.837l.291-27.729 7.368-3.621 3.132 7.219-10.791 24.131zm2.49-.68l9.379-20.97 3.302 7.6-12.681 13.37zm27.091 14.826l-12.056-27.78 12.056-12.716v40.496zm0-43.398L108.224 85.51l-3.691-8.491 5.642-12.618 10.968-5.388v12.87zm0-15.094l-9.691 4.76 9.691-21.663v16.903zm34.964-5.558l-4.497-4.918a3.58 3.58 0 0 0 .51-1.832c0-1.134-.531-2.143-1.355-2.8l13.18-16.55c.079.063.156.12.239.177l-8.077 25.923zm-10.043-2.734l-5.225 14.979-3.552-5.725 8.777-9.254zm-2.073-.712l-7.79 8.213-2.083-3.361 9.873-4.852zm-20.85-9.071l8.122 13.101-8.122 3.993V38.714zm0 19.316l9.176-4.51 2.464 3.975-11.64 12.283V58.03zm0 56.168v-41.52l12.729-13.428 4.125 6.648-16.854 48.3zm23.03-33.627l-20.271 31.767 15.445-44.256 4.854 7.837c-.556.623-.902 1.439-.902 2.345 0 .886.336 1.688.874 2.307zm2.621-5.84a3.42 3.42 0 0 0-.89.136l-5.71-9.209 6.145-17.606a2.55 2.55 0 0 0 .199.01c.58 0 1.126-.14 1.616-.39l5.271 5.764-6.631 21.295zm8.188-19.59l17.967 19.635c-.187.312-.332.654-.416 1.018l-22.382 1.281a3.51 3.51 0 0 0-1.439-1.796l6.27-20.138zm7.195 74.872a3.48 3.48 0 0 0-.241.178l-13.169-16.535c.852-.655 1.402-1.679 1.402-2.831a3.57 3.57 0 0 0-.594-1.968l4.311-5.019 8.291 26.175zm-7.47-30.194l-5.898-18.625c.729-.488 1.258-1.246 1.461-2.128l22.38-1.28c.093.258.204.504.354.73l-18.297 21.303zm-91.885 90.909c-2.384 0-4.249-2.008-4.249-4.572v-.037c0-2.589 1.825-4.537 4.249-4.537 1.271 0 2.359.468 3.513 1.518l1.289-1.483c-.994-.935-2.344-1.868-4.786-1.868-3.642 0-6.385 2.756-6.385 6.408v.035c0 3.631 2.703 6.37 6.296 6.37 2.046 0 3.491-.619 4.962-2.127l-1.281-1.302c-1.073.988-2.06 1.595-3.608 1.595zm20.146-4.566c0-3.632-2.778-6.371-6.462-6.371-3.701 0-6.493 2.755-6.493 6.408v.036c0 3.63 2.773 6.369 6.455 6.369 3.647 0 6.5-2.814 6.5-6.405v-.037zm-2.121.073c0 2.588-1.868 4.538-4.341 4.538-2.456 0-4.377-2.01-4.377-4.574v-.037c0-2.588 1.861-4.537 4.339-4.537 2.456 0 4.379 2.009 4.379 4.574v.036zm10.249 1.81l3.063 4.345h2.362l-3.368-4.722.135-.036c1.894-.542 2.931-1.86 2.931-3.715v-.037c0-1.047-.35-1.961-1.018-2.644-.817-.802-2.048-1.228-3.555-1.228h-5.511v12.381h2.012v-4.384h2.922l.027.04zm-2.948-6.221h3.318c1.72 0 2.704.795 2.704 2.184v.034c0 1.339-1.056 2.203-2.688 2.203h-3.334v-4.421zm21.551 7.178c0-1.475-.746-2.386-2.429-2.96l-.22-.075.207-.107c1.173-.609 1.746-1.499 1.746-2.717v-.033c0-.809-.271-1.467-.821-2.016-.705-.709-1.817-1.085-3.216-1.085h-5.543v12.381h5.725c2.852 0 4.551-1.252 4.551-3.351v-.037zm-8.297-7.234h3.277c1.448 0 2.313.635 2.313 1.699v.037c0 1.147-.902 1.807-2.473 1.807h-3.118v-3.543zm6.286 7.037c0 1.16-.918 1.825-2.52 1.825h-3.766v-3.649h3.6c1.737 0 2.686.633 2.686 1.788v.036zm13.401.548l1.277 3.037h2.119l-5.449-12.47h-1.918l-5.446 12.47h2.045l1.293-3.037h6.079zm-5.293-1.901l2.246-5.241 2.327 5.381h-4.638l.065-.14zm11.393-7.443v12.381h8.624v-1.814h-6.613v-10.567zm19.811 9.344l1.279 3.037h2.116l-5.447-12.47h-1.918l-5.448 12.47h2.046l1.296-3.037h6.076zm-5.296-1.901l2.249-5.241 2.328 5.381h-4.638l.061-.14zm20.456 4.938h1.704v-12.381h-1.979v8.89l-.175-.23-6.707-8.66h-1.903v12.381h1.974v-9.142l.176.23zm-83.946-27.909h3.105v8.193h2.035v-8.193h3.104v-1.892h-8.244zm17.545 2.174h-4.375v-4.066h-2.019v10.085h2.019v-4.123h4.375v4.123h2.017v-10.085h-2.017zm5.725-4.066h2.018v10.085h-2.018zm11.035-.068h-1.788l-4.437 10.153h2.091l1.004-2.363h4.43l.994 2.363h2.145l-4.397-10.065-.042-.088zm.544 5.967h-2.918l1.455-3.387 1.463 3.387zm11.143.215h2.5v1.606c-.601.424-1.4.665-2.211.665-1.874 0-3.179-1.372-3.179-3.372 0-1.822 1.355-3.304 3.025-3.304 1.212 0 1.91.388 2.643 1.014l.112.099 1.282-1.53-.112-.097c-1.144-.968-2.262-1.366-3.854-1.366-2.917 0-5.2 2.291-5.2 5.24 0 3.052 2.15 5.184 5.224 5.184 1.947 0 3.352-.847 4.183-1.56l.056-.046v-4.33h-4.469v1.797zm12.637-6.285c-2.958 0-5.275 2.291-5.275 5.24 0 2.957 2.256 5.184 5.248 5.184 2.965 0 5.286-2.288 5.286-5.239s-2.264-5.185-5.259-5.185zm-.027 1.881c1.816 0 3.18 1.434 3.18 3.359 0 1.883-1.354 3.305-3.152 3.305-1.809 0-3.176-1.433-3.176-3.36-.001-1.882 1.357-3.304 3.148-3.304zm-60.958 39.075h2.668c2.152 0 3.638 1.476 3.638 3.402v.02c0 1.926-1.485 3.422-3.638 3.422h-2.668v-6.844zm2.668 5.485c1.232 0 2.063-.833 2.063-2.043v-.021c0-1.212-.831-2.063-2.063-2.063h-1.162v4.127h1.162zm5.469-5.485h5.164v1.338H87.49v1.391h3.225v1.336H87.49v1.439h3.713v1.34h-5.211v-6.844zm6.574 5.846l.89-1.063c.617.506 1.262.83 2.043.83.616 0 .986-.245.986-.646v-.019c0-.383-.234-.576-1.377-.872-1.377-.351-2.271-.733-2.271-2.091v-.019c0-1.241.999-2.064 2.399-2.064.998 0 1.846.313 2.54.869l-.783 1.137c-.604-.422-1.201-.677-1.777-.677s-.883.266-.883.598v.019c0 .451.296.598 1.479.898 1.389.365 2.167.863 2.167 2.055v.02c0 1.359-1.033 2.121-2.51 2.121a4.37 4.37 0 0 1-2.903-1.096zm7.288-5.846h1.507v6.844h-1.507v-6.844zm3.404 3.442v-.021a3.51 3.51 0 0 1 3.588-3.54c1.231 0 1.975.333 2.688.939l-.948 1.145c-.527-.441-.995-.695-1.786-.695-1.097 0-1.967.969-1.967 2.132v.02c0 1.251.86 2.169 2.072 2.169.55 0 1.038-.136 1.419-.408v-.979h-1.518v-1.302h2.976v2.975c-.706.595-1.673 1.085-2.925 1.085-2.13-.001-3.599-1.497-3.599-3.52zm8.46-3.442h1.388l3.21 4.213v-4.213h1.485v6.844h-1.283l-3.314-4.353v4.353h-1.485v-6.844zm13.108 0h5.21v1.369h-3.708v1.456h3.267v1.369h-3.267v2.649h-1.502v-6.843zm6.602 3.442v-.021c0-1.946 1.533-3.54 3.647-3.54s3.626 1.574 3.626 3.521v.02c0 1.945-1.536 3.539-3.647 3.539s-3.626-1.573-3.626-3.519zm5.699 0v-.021c0-1.175-.862-2.151-2.073-2.151s-2.052.958-2.052 2.132v.02c0 1.174.858 2.149 2.073 2.149s2.052-.956 2.052-2.129zm3.405-3.442h3.129c.872 0 1.546.244 1.993.694.385.381.588.918.588 1.563v.021a2.12 2.12 0 0 1-1.466 2.12l1.673 2.446h-1.76l-1.466-2.191h-1.186v2.191h-1.506v-6.844zm3.03 3.323c.737 0 1.154-.391 1.154-.968v-.021c0-.644-.448-.977-1.18-.977h-1.498v1.965h1.524zm-78.775 10.557h1.621l1.802 2.894 1.798-2.894h1.622v6.845h-1.496v-4.469l-1.924 2.924h-.041l-1.906-2.895v4.439h-1.476v-6.844zm8.871 3.912v-3.912h1.506v3.872c0 1.115.557 1.691 1.477 1.691s1.476-.559 1.476-1.643v-3.921h1.507v3.862c0 2.073-1.165 3.089-3.002 3.089s-2.964-1.024-2.964-3.038zm7.992-3.912h1.507v5.477h3.408v1.368H81.65v-6.845zm8.135 1.388h-2.08v-1.388h5.67v1.388h-2.084v5.457h-1.506v-5.457zm5.303-1.388h1.506v6.845h-1.506v-6.845zm3.587 1.492h4.302v2.041h-4.302v-2.041zm6.518-1.492h2.799c1.633 0 2.62.97 2.62 2.367v.017c0 1.585-1.232 2.405-2.769 2.405H106.7v2.056h-1.507v-6.845zm2.702 3.45c.753 0 1.191-.447 1.191-1.035v-.021c0-.673-.47-1.034-1.223-1.034H106.7v2.09h1.195zm4.325-3.45h1.502v5.477h3.413v1.368h-4.915v-6.845zm8.887-.047h1.389l2.934 6.892h-1.574l-.623-1.535h-2.898l-.624 1.535h-1.533l2.929-6.892zm1.586 4.026l-.911-2.218-.909 2.218h1.82zm5.878-2.591h-2.084v-1.388h5.674v1.388h-2.084v5.457h-1.506v-5.457zm5.235-1.388h5.21v1.367h-3.704v1.458h3.264v1.369h-3.264v2.65h-1.506v-6.844zm6.601 3.441v-.019c0-1.947 1.536-3.541 3.646-3.541s3.628 1.576 3.628 3.521v.021c0 1.944-1.534 3.539-3.648 3.539s-3.626-1.575-3.626-3.521zm5.699 0v-.019c0-1.175-.859-2.15-2.073-2.15s-2.052.955-2.052 2.13v.021c0 1.173.862 2.151 2.072 2.151s2.053-.958 2.053-2.133zm3.408-3.441h3.13c.868 0 1.544.244 1.991.695.383.379.587.917.587 1.563v.02c0 1.104-.593 1.8-1.466 2.122l1.673 2.444h-1.761l-1.465-2.19h-1.184v2.19h-1.506v-6.844zm3.032 3.325c.732 0 1.153-.394 1.153-.969v-.019c0-.646-.452-.978-1.184-.978h-1.496v1.965h1.527zm4.528-3.325h1.622l1.802 2.894 1.798-2.894h1.621v6.845h-1.496v-4.469l-1.923 2.924h-.041l-1.907-2.895v4.439h-1.476v-6.844z"/></svg>
